<svg width="20" height="20" viewBox="0 0 20 20" fill="none" xmlns="http://www.w3.org/2000/svg">
<path d="M19.1229 10.3327C19.5231 9.80387 19.7446 9.156 19.7446 8.48192C19.7446 7.41245 19.1467 6.40015 18.1845 5.83564C17.9367 5.69033 17.6547 5.61385 17.3675 5.61412H11.6557L11.7986 2.68677C11.8319 1.97935 11.5819 1.30766 11.0959 0.795552C10.6077 0.283445 9.95025 0 9.24045 0C8.00186 0 6.90619 0.833662 6.57749 2.02699L4.53145 9.43468H1.45166C1.03006 9.43468 0.689453 9.77529 0.689453 10.1969V18.867C0.689453 19.2886 1.03006 19.6292 1.45166 19.6292H15.774C15.9931 19.6292 16.2075 19.5863 16.4052 19.5006C17.539 19.017 18.2702 17.9095 18.2702 16.6804C18.2702 16.3803 18.2273 16.0849 18.1416 15.7991C18.5417 15.2703 18.7633 14.6224 18.7633 13.9484C18.7633 13.6482 18.7204 13.3529 18.6346 13.0671C19.0348 12.5383 19.2563 11.8904 19.2563 11.2163C19.2515 10.9162 19.2087 10.6185 19.1229 10.3327ZM2.40442 17.9142V11.1496H4.33375V17.9142H2.40442ZM17.5628 9.50613L17.0411 9.95869L17.3722 10.5637C17.4818 10.7638 17.5366 10.9829 17.5366 11.214C17.5366 11.607 17.3651 11.9809 17.0697 12.2382L16.5481 12.6907L16.8792 13.2957C16.9887 13.4958 17.0435 13.7149 17.0435 13.946C17.0435 14.339 16.872 14.713 16.5767 14.9702L16.055 15.4228L16.3861 16.0278C16.4957 16.2278 16.5505 16.447 16.5505 16.678C16.5505 17.2116 16.2361 17.6927 15.7502 17.9118H5.85816V11.0734L8.22814 2.4867C8.352 2.03652 8.76407 1.71973 9.2333 1.71734C9.41433 1.71734 9.59297 1.76975 9.73588 1.87693C9.97169 2.05319 10.0979 2.31996 10.0836 2.60341L9.85498 7.32908H17.3436C17.7676 7.58871 18.0296 8.02698 18.0296 8.48192C18.0296 8.87493 17.8581 9.24651 17.5628 9.50613Z" fill="#979797"/>
</svg>
